<mxfile host="app.diagrams.net" modified="2024-05-23T15:28:11.882Z" agent="Mozilla/5.0 (Windows NT 10.0; Win64; x64) AppleWebKit/537.36 (KHTML, like Gecko) Chrome/125.0.0.0 Safari/537.36" etag="d5YgTH6v6u1TwHzxSOIU" version="24.4.6" type="device">
  <diagram name="Trang-1" id="CmY3z-MZ46bx_6dcvwtU">
    <mxGraphModel dx="1050" dy="522" grid="1" gridSize="10" guides="1" tooltips="1" connect="1" arrows="1" fold="1" page="1" pageScale="1" pageWidth="827" pageHeight="1169" math="0" shadow="0">
      <root>
        <mxCell id="0" />
        <mxCell id="1" parent="0" />
        <mxCell id="lqOoCfFzjaH7frLg9bI3-1" value="&lt;span style=&quot;color: rgb(34, 34, 34); font-family: &amp;quot;Roboto Flex&amp;quot;; text-align: left; background-color: rgb(255, 255, 255);&quot;&gt;&lt;b style=&quot;&quot;&gt;&lt;font style=&quot;font-size: 18px;&quot;&gt;Triangle&lt;/font&gt;&lt;/b&gt;&lt;/span&gt;" style="rounded=0;whiteSpace=wrap;html=1;" vertex="1" parent="1">
          <mxGeometry x="190" y="40" width="250" height="40" as="geometry" />
        </mxCell>
        <mxCell id="lqOoCfFzjaH7frLg9bI3-2" value="&lt;font style=&quot;font-size: 18px;&quot; face=&quot;Roboto&quot;&gt;-&amp;nbsp;&lt;span style=&quot;color: rgb(34, 34, 34); background-color: rgb(255, 255, 255);&quot;&gt;side1=1: double&lt;/span&gt;&lt;/font&gt;&lt;div&gt;&lt;font style=&quot;font-size: 18px;&quot; face=&quot;-lBqItBF3P4gWD6e38pQ&quot;&gt;-&amp;nbsp;&lt;span style=&quot;color: rgb(34, 34, 34); background-color: rgb(255, 255, 255);&quot;&gt;side2=1: double&lt;/span&gt;&lt;span style=&quot;color: rgb(34, 34, 34); background-color: rgb(255, 255, 255);&quot;&gt;&lt;br&gt;&lt;/span&gt;&lt;/font&gt;&lt;/div&gt;&lt;div&gt;&lt;font style=&quot;font-size: 18px;&quot; face=&quot;-lBqItBF3P4gWD6e38pQ&quot;&gt;-&amp;nbsp;&lt;span style=&quot;color: rgb(34, 34, 34); background-color: rgb(255, 255, 255);&quot;&gt;side3=1: double&lt;/span&gt;&lt;span style=&quot;color: rgb(34, 34, 34); background-color: rgb(255, 255, 255);&quot;&gt;&lt;br&gt;&lt;/span&gt;&lt;/font&gt;&lt;/div&gt;&lt;div&gt;&lt;font style=&quot;font-size: 18px;&quot; face=&quot;-lBqItBF3P4gWD6e38pQ&quot;&gt;&lt;span style=&quot;color: rgb(34, 34, 34); background-color: rgb(255, 255, 255);&quot;&gt;- color: String&lt;/span&gt;&lt;/font&gt;&lt;/div&gt;&lt;div&gt;&lt;span style=&quot;color: rgb(34, 34, 34); background-color: rgb(255, 255, 255);&quot;&gt;&lt;font style=&quot;font-size: 18px;&quot; face=&quot;-lBqItBF3P4gWD6e38pQ&quot;&gt;- area: double&lt;/font&gt;&lt;/span&gt;&lt;/div&gt;&lt;div&gt;&lt;font style=&quot;font-size: 18px;&quot; face=&quot;-lBqItBF3P4gWD6e38pQ&quot;&gt;&lt;span style=&quot;color: rgb(34, 34, 34); background-color: rgb(255, 255, 255);&quot;&gt;- p&lt;/span&gt;&lt;span style=&quot;background-color: rgb(255, 255, 255); color: rgb(34, 34, 34);&quot;&gt;erimeter: double&lt;/span&gt;&lt;/font&gt;&lt;/div&gt;" style="rounded=0;whiteSpace=wrap;html=1;align=left;" vertex="1" parent="1">
          <mxGeometry x="190" y="80" width="250" height="140" as="geometry" />
        </mxCell>
        <mxCell id="lqOoCfFzjaH7frLg9bI3-3" value="&lt;div&gt;&lt;font face=&quot;Roboto&quot;&gt;&lt;span style=&quot;font-size: 18px;&quot;&gt;- Triangle() {}&lt;/span&gt;&lt;/font&gt;&lt;/div&gt;&lt;div&gt;&lt;font face=&quot;Roboto&quot;&gt;&lt;span style=&quot;font-size: 18px;&quot;&gt;- Triangle(&lt;/span&gt;&lt;/font&gt;&lt;span style=&quot;font-family: Roboto; font-size: 18px; background-color: initial;&quot;&gt;side1, side2, side3,&amp;nbsp;&lt;/span&gt;&lt;span style=&quot;font-family: Roboto; font-size: 18px; background-color: initial;&quot;&gt;color,&lt;/span&gt;&lt;span style=&quot;background-color: initial; font-family: Roboto; font-size: 18px;&quot;&gt;&amp;nbsp;area, perimeter&lt;/span&gt;&lt;span style=&quot;background-color: initial; font-size: 18px; font-family: Roboto;&quot;&gt;){}&lt;/span&gt;&lt;/div&gt;&lt;div&gt;&lt;font face=&quot;Roboto&quot;&gt;&lt;span style=&quot;font-size: 18px;&quot;&gt;- get/set side1, side2, side3, area, perimeter double&lt;/span&gt;&lt;/font&gt;&lt;/div&gt;&lt;div&gt;&lt;font face=&quot;Roboto&quot;&gt;&lt;span style=&quot;font-size: 18px;&quot;&gt;- get/set color String&lt;/span&gt;&lt;/font&gt;&lt;/div&gt;" style="rounded=0;whiteSpace=wrap;html=1;align=left;" vertex="1" parent="1">
          <mxGeometry x="190" y="220" width="250" height="160" as="geometry" />
        </mxCell>
        <mxCell id="lqOoCfFzjaH7frLg9bI3-4" value="&lt;div&gt;&lt;span style=&quot;font-size: 18px; font-family: Roboto; background-color: initial;&quot;&gt;- inputData(scanner): Nhập màu sắc và 3 cạnh tạm giác side1, side2, side3&lt;/span&gt;&lt;/div&gt;&lt;div&gt;&lt;span style=&quot;font-size: 18px; font-family: Roboto; background-color: initial;&quot;&gt;- getArea()&lt;/span&gt;&lt;br&gt;&lt;/div&gt;&lt;div&gt;&lt;span style=&quot;font-size: 18px; font-family: -lBqItBF3P4gWD6e38pQ; background-color: initial;&quot;&gt;- getPerimeter&lt;/span&gt;&lt;/div&gt;&lt;div&gt;&lt;span style=&quot;font-size: 18px; font-family: -lBqItBF3P4gWD6e38pQ; background-color: initial;&quot;&gt;-&lt;/span&gt;&lt;font style=&quot;font-size: 18px;&quot;&gt;&lt;span style=&quot;font-family: -lBqItBF3P4gWD6e38pQ; background-color: initial;&quot;&gt;&amp;nbsp;&lt;/span&gt;&lt;span style=&quot;background-color: rgb(255, 255, 255); color: rgb(34, 34, 34); font-family: &amp;quot;Roboto Flex&amp;quot;;&quot;&gt;toString() trả về màu sắc, chu vi, diện tích ở TriangleRun&lt;/span&gt;&lt;/font&gt;&lt;/div&gt;" style="rounded=0;whiteSpace=wrap;html=1;align=left;" vertex="1" parent="1">
          <mxGeometry x="190" y="380" width="250" height="180" as="geometry" />
        </mxCell>
      </root>
    </mxGraphModel>
  </diagram>
</mxfile>
